<svg width="19" height="30" viewBox="0 0 19 30" fill="none" xmlns="http://www.w3.org/2000/svg">
<path d="M9.5 0C4.2618 0 0 4.48611 0 10C0 11.6553 0.393154 13.2965 1.14055 14.7522L8.98049 29.6777C9.08486 29.8767 9.28375 30 9.5 30C9.71626 30 9.91514 29.8767 10.0195 29.6777L17.8623 14.7473C18.6068 13.2965 19 11.6552 19 9.99996C19 4.48611 14.7382 0 9.5 0ZM9.5 15C6.8809 15 4.75003 12.757 4.75003 10C4.75003 7.24307 6.8809 5.00004 9.5 5.00004C12.1191 5.00004 14.25 7.24307 14.25 10C14.25 12.757 12.1191 15 9.5 15Z" fill="#2B2B2B"/>
</svg>
